<svg width="24" height="18" viewBox="0 0 24 18" fill="none" xmlns="http://www.w3.org/2000/svg">
<path d="M21.75 -1.52588e-05H2.25002C1.00928 -1.52588e-05 0 1.00926 0 2.25V15.75C0 16.9907 1.00928 18 2.25002 18H21.75C22.9907 18 24 16.9907 24 15.75V2.25C24 1.00926 22.9907 -1.52588e-05 21.75 -1.52588e-05ZM21.75 1.49998C21.8519 1.49998 21.9488 1.52112 22.0374 1.55804L12 10.2576L1.9625 1.55804C2.05113 1.52117 2.14807 1.49998 2.24997 1.49998H21.75ZM21.75 16.5H2.25002C1.8362 16.5 1.49999 16.1638 1.49999 15.7499V3.1428L11.5085 11.8169C11.6499 11.9392 11.825 12 12 12C12.175 12 12.3501 11.9392 12.4915 11.8169L22.5 3.1428V15.75C22.5 16.1638 22.1638 16.5 21.75 16.5Z" fill="#BBC1D9"/>
</svg>
