<svg width="425" height="62" viewBox="0 0 425 62" fill="none" xmlns="http://www.w3.org/2000/svg">
<path fill-rule="evenodd" clip-rule="evenodd" d="M302.296 39.3839C302.416 39.4491 302.532 39.5144 302.644 39.58C304.731 40.7133 305.774 42.3566 305.774 44.51C305.774 47.2865 304.674 49.4115 302.474 50.885C300.275 52.3015 297.116 53.01 292.999 53.01C289.784 53.01 286.851 52.6135 284.2 51.82C281.549 51.0265 279.011 49.7515 276.585 47.995C275.288 47.2015 274.132 46.805 273.117 46.805C272.158 46.805 271.312 47.2585 270.578 48.165C269.902 49.015 269.563 50.035 269.563 51.225C269.563 52.9815 270.212 54.3415 271.509 55.305C273.935 57.2885 277.065 58.875 280.9 60.065C284.792 61.1985 288.91 61.765 293.252 61.765C297.821 61.765 301.854 61.0285 305.351 59.555C308.904 58.025 311.64 55.9285 313.558 53.265C315.532 50.545 316.519 47.4285 316.519 43.915C316.519 40.685 315.673 37.9933 313.981 35.84C312.726 34.1879 311.023 32.7693 308.872 31.5842L302.296 39.3839ZM298.987 27.8366C297.618 27.4592 296.158 27.0953 294.606 26.745C289.868 25.6683 286.512 24.5066 284.538 23.26C282.564 22.0133 281.577 20.2283 281.577 17.905C281.577 15.1283 282.677 12.975 284.877 11.445C287.133 9.85835 290.179 9.065 294.014 9.065C297.173 9.065 299.824 9.49 301.967 10.34C304.166 11.1333 306.423 12.38 308.735 14.08C309.225 14.3615 309.651 14.5884 310.011 14.7607L315.222 8.5797C314.935 7.97645 314.436 7.37325 313.727 6.77C308.651 2.46335 302.08 0.309998 294.014 0.309998C289.614 0.309998 285.638 1.10335 282.085 2.69C278.588 4.22 275.852 6.37335 273.878 9.15C271.904 11.9266 270.917 15.0716 270.917 18.585C270.917 21.985 271.707 24.79 273.286 27C274.865 29.21 277.206 31.0233 280.308 32.44C283.33 33.82 287.235 35.0387 292.023 36.0961L298.987 27.8366ZM326.561 10.6015L334.527 1.1537C335.069 1.40315 335.544 1.74525 335.952 2.18C336.968 3.14335 337.475 4.44665 337.475 6.09V27.935L364.718 2.265C365.733 1.245 366.889 0.734998 368.187 0.734998C369.484 0.734998 370.612 1.245 371.571 2.265C372.586 3.22835 373.094 4.36165 373.094 5.665C373.094 6.96835 372.53 8.15835 371.402 9.235L348.643 30.145L372.84 52.755C373.968 53.8315 374.532 55.05 374.532 56.41C374.532 57.7135 374.025 58.875 373.009 59.895C372.05 60.8585 370.894 61.34 369.541 61.34C368.13 61.34 366.833 60.745 365.649 59.555L337.475 33.035V55.985C337.475 57.6285 336.968 58.96 335.952 59.98C334.993 61 333.668 61.51 331.976 61.51C330.34 61.51 329.015 61 328 59.98C327.041 58.96 326.561 57.6285 326.561 55.985V10.6015ZM5.69865 1.075H13.4643L0.453171 12.4326V6.26C0.453171 4.61665 0.904397 3.34165 1.80685 2.435C2.7657 1.52835 4.06294 1.075 5.69865 1.075ZM0.453171 55.815V25.6799L11.1133 16.3745V26.32H24.9039C32.4055 26.32 36.1563 23.515 36.1563 17.905C36.1563 15.0716 35.2257 12.975 33.3644 11.615C31.5031 10.255 28.6829 9.575 24.9039 9.575H18.9027L28.5878 1.1208C33.8874 1.38145 38.1023 2.7545 41.2326 5.24C44.786 7.96 46.5627 11.785 46.5627 16.715C46.5627 19.8883 45.7167 22.6366 44.0246 24.96C42.3889 27.2833 40.1045 28.9833 37.1716 30.06C40.6122 31.0233 43.2631 32.78 45.1244 35.33C47.0421 37.88 48.001 40.9967 48.001 44.68C48.001 49.78 46.1679 53.775 42.5017 56.665C38.8919 59.555 33.9002 61 27.5266 61H5.69865C4.06294 61 2.7657 60.5465 1.80685 59.64C0.904397 58.7335 0.453171 57.4585 0.453171 55.815ZM79.2301 9.3684C80.6798 9.70145 81.8782 10.3086 82.8258 11.19C84.3487 12.6066 85.1101 14.6466 85.1101 17.31C85.1101 19.4633 84.5462 21.645 83.418 23.855C82.3465 26.0083 80.6261 28.3883 78.2571 30.995L58.9673 51.82C57.6698 53.18 57.0214 54.71 57.0214 56.41C57.0214 57.7135 57.4444 58.8185 58.2904 59.725C59.1365 60.575 60.2926 61 61.7592 61H93.909C97.2932 61 98.9853 59.4985 98.9853 56.495C98.9853 53.605 97.2932 52.16 93.909 52.16H71.5734L86.21 36.52C89.7071 32.78 92.1885 29.4083 93.6552 26.405C95.1218 23.345 95.8549 20.0866 95.8549 16.63C95.8549 11.6433 94.1066 7.67665 90.6094 4.73C87.169 1.78335 82.5436 0.309998 76.7343 0.309998C74.7291 0.309998 72.7235 0.526038 70.7184 0.958123L79.2301 9.3684ZM60.5867 4.9731C59.6924 5.5273 58.8424 6.12625 58.0366 6.77C57.3598 7.33665 56.8522 7.93165 56.5137 8.555C56.2316 9.17835 56.0907 9.915 56.0907 10.765C56.0907 12.0116 56.4291 13.0883 57.106 13.995C57.8391 14.9016 58.6851 15.355 59.6441 15.355C60.208 15.355 60.7723 15.2416 61.3362 15.015C61.9001 14.7316 62.4644 14.3916 63.0283 13.995C64.4248 13.0235 65.8103 12.1891 67.1844 11.4918L60.5867 4.9731ZM34.9719 50.375C33.1669 51.7915 30.2904 52.5 26.3422 52.5H11.1133V34.82H26.3422C30.234 34.82 33.0823 35.5566 34.8873 37.03C36.7486 38.5033 37.6792 40.7416 37.6792 43.745C37.6792 46.7485 36.7768 48.9585 34.9719 50.375ZM153.69 35.33C151.828 32.78 149.177 31.0233 145.737 30.06C148.67 28.9833 150.954 27.2833 152.59 24.96C154.282 22.6366 155.128 19.8883 155.128 16.715C155.128 11.785 153.351 7.96 149.798 5.24C146.301 2.46335 141.45 1.075 135.246 1.075H114.264C112.628 1.075 111.331 1.52835 110.372 2.435C109.469 3.34165 109.018 4.61665 109.018 6.26V39.3794L119.679 49.9125V34.82H134.907C138.799 34.82 141.647 35.5566 143.452 37.03C145.314 38.5033 146.244 40.7416 146.244 43.745C146.244 46.7485 145.342 48.9585 143.537 50.375C141.732 51.7915 138.855 52.5 134.907 52.5H122.297L130.9 61H136.092C142.465 61 147.457 59.555 151.067 56.665C154.733 53.775 156.566 49.78 156.566 44.68C156.566 40.9967 155.607 37.88 153.69 35.33ZM109.018 55.815V53.4055L116.705 61H114.264C112.628 61 111.331 60.5465 110.372 59.64C109.469 58.7335 109.018 57.4585 109.018 55.815ZM133.469 26.32H119.679V9.575H133.469C137.248 9.575 140.068 10.255 141.93 11.615C143.791 12.975 144.722 15.0716 144.722 17.905C144.722 23.515 140.971 26.32 133.469 26.32ZM181.427 59.98C182.442 60.9435 183.796 61.425 185.488 61.425C187.124 61.425 188.421 60.9435 189.38 59.98C190.395 58.96 190.903 57.6285 190.903 55.985V30.2051L179.989 40.0695V55.985C179.989 57.6285 180.469 58.96 181.427 59.98ZM179.989 26.6184V10.085H164.591C161.207 10.085 159.514 8.58335 159.514 5.58C159.514 2.57665 161.207 1.075 164.591 1.075H206.301C209.685 1.075 211.377 2.57665 211.377 5.58C211.377 8.58335 209.685 10.085 206.301 10.085H190.903V16.754L179.989 26.6184ZM265.048 56.665C265.048 55.9285 264.879 55.1915 264.54 54.455L241.105 4.05C240.597 2.91665 239.807 2.06665 238.736 1.5C237.72 0.876668 236.621 0.565003 235.436 0.565003C234.252 0.565003 233.123 0.876668 232.052 1.5C231.037 2.06665 230.275 2.91665 229.768 4.05L206.417 54.455C206.078 55.1915 205.909 55.9285 205.909 56.665C205.909 57.9685 206.445 59.0735 207.517 59.98C208.588 60.8865 209.773 61.34 211.07 61.34C212.029 61.34 212.903 61.1135 213.693 60.66C214.482 60.15 215.103 59.385 215.554 58.365L220.63 46.975H242.858L235.692 38.475H224.353L235.521 13.23L244.428 33.3645L264.929 57.682C265.008 57.3575 265.048 57.0185 265.048 56.665ZM389.052 60.065C392.944 61.1985 397.061 61.765 401.405 61.765C404.108 61.765 406.624 61.507 408.953 60.991L402.21 52.9935C401.864 53.0045 401.511 53.01 401.151 53.01C397.936 53.01 395.003 52.6135 392.352 51.82C389.701 51.0265 387.163 49.7515 384.738 47.995C383.44 47.2015 382.284 46.805 381.269 46.805C380.31 46.805 379.464 47.2585 378.731 48.165C378.054 49.015 377.715 50.035 377.715 51.225C377.715 52.9815 378.364 54.3415 379.661 55.305C382.086 57.2885 385.217 58.875 389.052 60.065ZM421.71 53.265C420.79 54.543 419.682 55.69 418.385 56.707L412.26 49.442C413.371 48.127 413.926 46.483 413.926 44.51C413.926 42.3566 412.882 40.7133 410.796 39.58C408.765 38.39 405.353 37.2566 400.559 36.18C395.595 35.1033 391.562 33.8566 388.46 32.44C385.358 31.0233 383.017 29.21 381.438 27C379.859 24.79 379.069 21.985 379.069 18.585C379.069 15.0716 380.056 11.9266 382.03 9.15C384.004 6.37335 386.74 4.22 390.237 2.69C393.79 1.10335 397.767 0.309998 402.166 0.309998C410.232 0.309998 416.803 2.46335 421.879 6.77C422.612 7.39335 423.12 8.01665 423.402 8.64C423.74 9.20665 423.909 9.94335 423.909 10.85C423.909 12.04 423.543 13.0883 422.81 13.995C422.133 14.845 421.315 15.27 420.356 15.27C419.792 15.27 419.256 15.185 418.749 15.015C418.297 14.845 417.677 14.5333 416.887 14.08C414.575 12.38 412.319 11.1333 410.119 10.34C407.975 9.49 405.325 9.065 402.166 9.065C398.33 9.065 395.285 9.85835 393.029 11.445C390.829 12.975 389.729 15.1283 389.729 17.905C389.729 20.2283 390.716 22.0133 392.69 23.26C394.665 24.5066 398.02 25.6683 402.758 26.745C407.778 27.8783 411.839 29.1533 414.941 30.57C418.1 31.93 420.497 33.6866 422.133 35.84C423.825 37.9933 424.671 40.685 424.671 43.915C424.671 47.4285 423.684 50.545 421.71 53.265Z" fill="#6080FF"/>
</svg>
