<svg width="21" height="24" viewBox="0 0 21 24" fill="none" xmlns="http://www.w3.org/2000/svg">
<path fill-rule="evenodd" clip-rule="evenodd" d="M17.3215 8.57142H18.1565C19.3091 8.57142 20.2435 9.50579 20.2435 10.6584V21.913C20.2435 23.0657 19.3091 24 18.1565 24H2.08696C0.934362 24 0 23.0657 0 21.913V10.6584C0 9.50579 0.934362 8.57142 2.08696 8.57142H3.13066C3.14571 6.30486 3.89157 4.1351 5.20871 2.53102C6.53939 0.910433 8.34419 0 10.2261 0C12.108 0 13.9128 0.910433 15.2435 2.53102C16.5606 4.1351 17.3065 6.30486 17.3215 8.57142ZM4.75112 8.57142C4.76613 6.82825 5.34123 5.1604 6.35449 3.9264C7.38129 2.67592 8.77396 1.97338 10.2261 1.97338C11.6782 1.97338 13.0709 2.67592 14.0977 3.9264C15.1109 5.1604 15.686 6.82825 15.701 8.57142H4.75112ZM2.08696 10.241H18.1565C18.387 10.241 18.5739 10.4279 18.5739 10.6584V21.913C18.5739 22.1437 18.387 22.3304 18.1565 22.3304H2.08696C1.85644 22.3304 1.66957 22.1437 1.66957 21.913V10.6584C1.66957 10.4279 1.85644 10.241 2.08696 10.241ZM10.2138 16.5533C10.7928 16.5533 11.2573 16.0858 11.2573 15.515C11.2573 14.9442 10.7928 14.4767 10.2138 14.4767C9.63485 14.4767 9.17034 14.9442 9.17034 15.515C9.17034 16.0858 9.63485 16.5533 10.2138 16.5533ZM11.0227 17.6592C11.8915 17.3328 12.5095 16.4959 12.5095 15.515C12.5095 14.25 11.4817 13.2245 10.2138 13.2245C8.94595 13.2245 7.91816 14.25 7.91816 15.515C7.91816 16.5042 8.54663 17.3469 9.42693 17.6674C9.40376 17.744 9.3913 17.8252 9.3913 17.9094V18.9337C9.3913 19.3948 9.76506 19.7685 10.2261 19.7685C10.6871 19.7685 11.0609 19.3948 11.0609 18.9337V17.9094C11.0609 17.8222 11.0475 17.7382 11.0227 17.6592Z" fill="#BBC1D9"/>
</svg>
