<svg width="11" height="11" viewBox="0 0 11 11" fill="none" xmlns="http://www.w3.org/2000/svg">
<g clip-path="url(#clip0_24:1362)">
<path d="M6.85833 4.14383C6.73093 4.14383 6.62769 4.24708 6.62769 4.37447V8.73364C6.62769 8.86095 6.73093 8.96428 6.85833 8.96428C6.98572 8.96428 7.08897 8.86095 7.08897 8.73364V4.37447C7.08897 4.24708 6.98572 4.14383 6.85833 4.14383Z" fill="#FF3572"/>
<path d="M4.13628 4.14383C4.00889 4.14383 3.90564 4.24708 3.90564 4.37447V8.73364C3.90564 8.86095 4.00889 8.96428 4.13628 8.96428C4.26368 8.96428 4.36693 8.86095 4.36693 8.73364V4.37447C4.36693 4.24708 4.26368 4.14383 4.13628 4.14383Z" fill="#FF3572"/>
<path d="M2.15335 3.50773V9.19029C2.15335 9.52616 2.27651 9.84159 2.49166 10.0679C2.70582 10.2949 3.00385 10.4237 3.31576 10.4242H7.6796C7.99159 10.4237 8.28963 10.2949 8.50369 10.0679C8.71884 9.84159 8.842 9.52616 8.842 9.19029V3.50773C9.26968 3.39421 9.54681 2.98104 9.4896 2.54219C9.4323 2.10342 9.0585 1.77521 8.61595 1.77512H7.43508V1.48681C7.43643 1.24437 7.34057 1.01156 7.16894 0.840294C6.99731 0.669113 6.76414 0.573793 6.5217 0.575775H4.47366C4.23121 0.573793 3.99805 0.669113 3.82642 0.840294C3.65479 1.01156 3.55893 1.24437 3.56028 1.48681V1.77512H2.3794C1.93686 1.77521 1.56305 2.10342 1.50575 2.54219C1.44854 2.98104 1.72567 3.39421 2.15335 3.50773ZM7.6796 9.96294H3.31576C2.92141 9.96294 2.61464 9.62419 2.61464 9.19029V3.528H8.38071V9.19029C8.38071 9.62419 8.07394 9.96294 7.6796 9.96294ZM4.02156 1.48681C4.02003 1.36672 4.06724 1.25113 4.15247 1.16635C4.23761 1.08157 4.35347 1.03499 4.47366 1.03706H6.5217C6.64188 1.03499 6.75774 1.08157 6.84288 1.16635C6.92811 1.25104 6.97532 1.36672 6.97379 1.48681V1.77512H4.02156V1.48681ZM2.3794 2.2364H8.61595C8.84524 2.2364 9.03111 2.42227 9.03111 2.65156C9.03111 2.88085 8.84524 3.06672 8.61595 3.06672H2.3794C2.15011 3.06672 1.96425 2.88085 1.96425 2.65156C1.96425 2.42227 2.15011 2.2364 2.3794 2.2364Z" fill="#FF3572"/>
<path d="M5.49792 4.14383C5.37052 4.14383 5.26727 4.24708 5.26727 4.37447V8.73364C5.26727 8.86095 5.37052 8.96428 5.49792 8.96428C5.62531 8.96428 5.72856 8.86095 5.72856 8.73364V4.37447C5.72856 4.24708 5.62531 4.14383 5.49792 4.14383Z" fill="#FF3572"/>
</g>
<defs>
<clipPath id="clip0_24:1362">
<rect width="9.84848" height="9.84848" fill="white" transform="translate(0.575745 0.575745)"/>
</clipPath>
</defs>
</svg>
