<svg width="19" height="20" viewBox="0 0 19 20" fill="none" xmlns="http://www.w3.org/2000/svg">
<path opacity="0.5" fill-rule="evenodd" clip-rule="evenodd" d="M4.25 7.25C4.25 3.52208 7.27208 0.5 11 0.5C14.7279 0.5 17.75 3.52208 17.75 7.25C17.75 10.9779 14.7279 14 11 14C7.27208 14 4.25 10.9779 4.25 7.25ZM11 0C6.99594 0 3.75 3.24594 3.75 7.25C3.75 9.31562 4.61385 11.1795 5.99999 12.5L0 19.5L0.379629 19.8254L6.37368 12.8323C7.62902 13.8739 9.24139 14.5 11 14.5C15.0041 14.5 18.25 11.2541 18.25 7.25C18.25 3.24594 15.0041 0 11 0Z" fill="#BBC1D9"/>
</svg>
