<svg width="13" height="13" viewBox="0 0 13 13" fill="none" xmlns="http://www.w3.org/2000/svg">
<path fill-rule="evenodd" clip-rule="evenodd" d="M1.40281 2.46612L3.62366 2.67812C4.04793 2.71862 4.45124 2.48576 4.6283 2.09808L5.55543 0.0681328C5.86379 0.0232416 6.17918 0 6.49999 0C6.8208 0 7.13618 0.0232415 7.44455 0.0681327L8.37167 2.09809C8.54873 2.48576 8.95205 2.71862 9.37632 2.67812L11.5972 2.46612C11.9872 2.95832 12.3075 3.50834 12.543 4.10123L11.248 5.91997C11.0008 6.26715 11.0008 6.73285 11.248 7.08003L12.543 8.89877C12.3075 9.49166 11.9872 10.0417 11.5972 10.5339L9.37632 10.3219C8.95205 10.2814 8.54873 10.5142 8.37167 10.9019L7.44455 12.9319C7.13619 12.9768 6.8208 13 6.49999 13C6.17918 13 5.86379 12.9768 5.55543 12.9319L4.6283 10.9019C4.45124 10.5142 4.04793 10.2814 3.62366 10.3219L1.40281 10.5339C1.01276 10.0417 0.692486 9.49166 0.45694 8.89877L1.75198 7.08003C1.99918 6.73285 1.99918 6.26715 1.75198 5.91997L0.45694 4.10123C0.692486 3.50834 1.01276 2.95832 1.40281 2.46612Z" fill="#6080FF"/>
<circle cx="6.5" cy="6.5" r="2.5" fill="white"/>
</svg>
