<svg width="25" height="14" viewBox="0 0 25 14" fill="none" xmlns="http://www.w3.org/2000/svg">
<g clip-path="url(#clip0_14:218)">
<path fill-rule="evenodd" clip-rule="evenodd" d="M13.7261 13.9415C13.7261 13.9415 14.1772 13.8923 14.4084 13.6486C14.6199 13.4254 14.6125 13.0041 14.6125 13.0041C14.6125 13.0041 14.5844 11.0369 15.5149 10.7464C16.432 10.4607 17.6095 12.6488 18.8591 13.4902C19.8031 14.1263 20.5197 13.9871 20.5197 13.9871L23.8589 13.9415C23.8589 13.9415 25.6051 13.8359 24.7772 12.488C24.7088 12.3775 24.2943 11.4906 22.2951 9.6686C20.2005 7.7614 20.4817 8.06987 23.003 4.77039C24.5388 2.76117 25.1526 1.53452 24.9607 1.01001C24.7785 0.508307 23.6487 0.641535 23.6487 0.641535L19.8899 0.66434C19.8899 0.66434 19.6111 0.627132 19.4045 0.74836C19.2028 0.86718 19.0719 1.14444 19.0719 1.14444C19.0719 1.14444 18.4776 2.69876 17.6841 4.02143C16.0101 6.8108 15.3413 6.95847 15.0674 6.7856C14.4303 6.38112 14.5893 5.16287 14.5893 4.29749C14.5893 1.59333 15.0075 0.466299 13.7762 0.174639C13.3678 0.0774187 13.067 0.0138053 12.0215 0.00300306C10.6802 -0.0101997 9.54546 0.00780408 8.9023 0.316268C8.47434 0.52151 8.14421 0.980007 8.34592 1.00641C8.59414 1.03882 9.15664 1.15524 9.455 1.55373C9.84013 2.06863 9.82671 3.22327 9.82671 3.22327C9.82671 3.22327 10.048 6.40633 9.30947 6.8012C8.80322 7.07247 8.10875 6.51915 6.61572 3.98783C5.85152 2.69156 5.27438 1.25846 5.27438 1.25846C5.27438 1.25846 5.16311 0.990807 4.9638 0.84678C4.72292 0.67274 4.38666 0.618731 4.38666 0.618731L0.815013 0.641535C0.815013 0.641535 0.278223 0.655938 0.0813597 0.885187C-0.0934936 1.08803 0.0679097 1.50931 0.0679097 1.50931C0.0679097 1.50931 2.86434 7.93187 6.03126 11.1689C8.93533 14.1359 12.2318 13.9415 12.2318 13.9415H13.7261Z" fill="#BBC1D9"/>
</g>
<defs>
<clipPath id="clip0_14:218">
<rect width="25" height="14" fill="white"/>
</clipPath>
</defs>
</svg>
