<svg width="13" height="12" viewBox="0 0 13 12" fill="none" xmlns="http://www.w3.org/2000/svg">
<path d="M9.35474 2.17142L8.20478 0.201375C8.15007 0.107666 8.06015 0.0394162 7.95507 0.0123329C7.85053 -0.0136671 7.7384 0.00149954 7.64524 0.0572912L4.12982 2.16654L9.35474 2.17142Z" fill="white"/>
<path d="M1.625 2.70829C1.32708 2.70829 1.08333 2.46454 1.08333 2.16663C1.08333 1.86871 1.32708 1.62496 1.625 1.62496H3.45042L5.25958 0.541626H1.625C0.823333 0.541626 0.157083 1.12663 0.0270833 1.89579C0.01625 1.93913 0 1.98246 0 2.03121V10.2916C0 11.1854 0.73125 11.9166 1.625 11.9166H10.8333C11.4292 11.9166 11.9167 11.4291 11.9167 10.8333V9.74996H10.5625C9.21917 9.74996 8.125 8.65579 8.125 7.31246C8.125 5.96913 9.21917 4.87496 10.5625 4.87496H11.9167V3.79163C11.9167 3.19579 11.4292 2.70829 10.8333 2.70829H1.625ZM10.2917 1.62496C10.2917 1.07788 9.88542 0.622876 9.35458 0.552459L10.2917 2.16663V1.62496Z" fill="white"/>
<path d="M12.5938 5.68762H10.5626C9.66664 5.68762 8.93756 6.41671 8.93756 7.31262C8.93756 8.20854 9.66664 8.93762 10.5626 8.93762H12.5938C12.8181 8.93762 13.0001 8.75562 13.0001 8.53137V6.09387C13.0001 5.86962 12.8181 5.68762 12.5938 5.68762ZM10.5626 7.85429C10.2636 7.85429 10.0209 7.61162 10.0209 7.31262C10.0209 7.01362 10.2636 6.77096 10.5626 6.77096C10.8616 6.77096 11.1042 7.01362 11.1042 7.31262C11.1042 7.61162 10.8616 7.85429 10.5626 7.85429Z" fill="white"/>
</svg>
